{
  "accessors": [
    {
      "bufferView": 2,
      "componentType": 5126,
      "count": 4420,
      "max": [
        1,
        0.090272799134254456,
        0.70951902866363525
      ],
      "min": [
        -1,
        -0.2535560131072998,
        -0.70951902866363525
      ],
      "type": "VEC3"
    },
    {
      "bufferView": 2,
      "byteOffset": 53040,
      "componentType": 5126,
      "count": 4420,
      "max": [
        1,
        0.9983067512512207,
        0.99983835220336914
      ],
      "min": [
        -1,
        -0.99276745319366455,
        -0.99983787536621094
      ],
      "type": "VEC3"
    },
    {
      "bufferView": 3,
      "componentType": 5126,
      "count": 4420,
      "max": [
        1,
        0.99594998359680176,
        0.99984097480773926,
        1
      ],
      "min": [
        -1,
        -0.99705398082733154,
        -0.99984198808670044,
        1
      ],
      "type": "VEC4"
    },
    {
      "bufferView": 2,
      "byteOffset": 106080,
      "componentType": 5126,
      "count": 4420,
      "max": [
        0.26666668057441711,
        0.81176471710205078,
        0.81176471710205078
      ],
      "min": [
        0.17647059261798859,
        0.18039216101169586,
        0.30196079611778259
      ],
      "type": "VEC3"
    },
    {
      "bufferView": 1,
      "componentType": 5126,
      "count": 4420,
      "max": [
        1.0000200271606445,
        1
      ],
      "min": [
        0,
        -0.00034540100023150444
      ],
      "type": "VEC2"
    },
    {
      "bufferView": 0,
      "componentType": 5125,
      "count": 15240,
      "max": [
        4419
      ],
      "min": [
        0
      ],
      "type": "SCALAR"
    },
    {
      "bufferView": 2,
      "byteOffset": 159120,
      "componentType": 5126,
      "count": 176,
      "max": [
        0.62626701593399048,
        0.099809102714061737,
        0.31294998526573181
      ],
      "min": [
        -0.61361098289489746,
        -0.24946899712085724,
        -0.31146100163459778
      ],
      "type": "VEC3"
    },
    {
      "bufferView": 2,
      "byteOffset": 161232,
      "componentType": 5126,
      "count": 176,
      "max": [
        1,
        0.89392822980880737,
        1
      ],
      "min": [
        -1,
        -0.89392852783203125,
        -1
      ],
      "type": "VEC3"
    },
    {
      "bufferView": 3,
      "byteOffset": 70720,
      "componentType": 5126,
      "count": 176,
      "max": [
        0.68498200178146362,
        1,
        0.80824100971221924,
        1
      ],
      "min": [
        -0.68498098850250244,
        -1,
        -1,
        1
      ],
      "type": "VEC4"
    },
    {
      "bufferView": 1,
      "byteOffset": 35360,
      "componentType": 5126,
      "count": 176,
      "max": [
        0.99467200040817261,
        0.98385399580001831
      ],
      "min": [
        0.029667099937796593,
        0.006690130103379488
      ],
      "type": "VEC2"
    },
    {
      "bufferView": 0,
      "byteOffset": 60960,
      "componentType": 5125,
      "count": 504,
      "max": [
        175
      ],
      "min": [
        0
      ],
      "type": "SCALAR"
    },
    {
      "bufferView": 2,
      "byteOffset": 163344,
      "componentType": 5126,
      "count": 748,
      "max": [
        0.60916697978973389,
        0.32207900285720825,
        0.29832398891448975
      ],
      "min": [
        -0.59292900562286377,
        -0.25215700268745422,
        -0.29563400149345398
      ],
      "type": "VEC3"
    },
    {
      "bufferView": 2,
      "byteOffset": 172320,
      "componentType": 5126,
      "count": 748,
      "max": [
        0.90569329261779785,
        1,
        0.99990212917327881
      ],
      "min": [
        -0.90569275617599487,
        -0.99753445386886597,
        -0.99990189075469971
      ],
      "type": "VEC3"
    },
    {
      "bufferView": 3,
      "byteOffset": 73536,
      "componentType": 5126,
      "count": 748,
      "max": [
        1,
        0.9991530179977417,
        1,
        1
      ],
      "min": [
        -1,
        -0.99967700242996216,
        -0.99957197904586792,
        -1
      ],
      "type": "VEC4"
    },
    {
      "bufferView": 1,
      "byteOffset": 36768,
      "componentType": 5126,
      "count": 748,
      "max": [
        1,
        0.99221700429916382
      ],
      "min": [
        0.029605099931359291,
        -0.0046505900099873543
      ],
      "type": "VEC2"
    },
    {
      "bufferView": 0,
      "byteOffset": 62976,
      "componentType": 5125,
      "count": 2196,
      "max": [
        747
      ],
      "min": [
        0
      ],
      "type": "SCALAR"
    },
    {
      "bufferView": 2,
      "byteOffset": 181296,
      "componentType": 5126,
      "count": 504,
      "max": [
        0.30427101254463196,
        0.32331499457359314,
        0.15966799855232239
      ],
      "min": [
        -0.28985801339149475,
        -0.28960499167442322,
        -0.1701350063085556
      ],
      "type": "VEC3"
    },
    {
      "bufferView": 2,
      "byteOffset": 187344,
      "componentType": 5126,
      "count": 504,
      "max": [
        1,
        0.99958562850952148,
        1
      ],
      "min": [
        -1,
        -0.45857489109039307,
        -1
      ],
      "type": "VEC3"
    },
    {
      "bufferView": 3,
      "byteOffset": 85504,
      "componentType": 5126,
      "count": 504,
      "max": [
        1,
        0.94827502965927124,
        1,
        1
      ],
      "min": [
        -1,
        -0.9285159707069397,
        -1,
        1
      ],
      "type": "VEC4"
    },
    {
      "bufferView": 1,
      "byteOffset": 42752,
      "componentType": 5126,
      "count": 504,
      "max": [
        0.98632800579071045,
        1
      ],
      "min": [
        0,
        0
      ],
      "type": "VEC2"
    },
    {
      "bufferView": 0,
      "byteOffset": 71760,
      "componentType": 5125,
      "count": 1512,
      "max": [
        503
      ],
      "min": [
        0
      ],
      "type": "SCALAR"
    },
    {
      "bufferView": 2,
      "byteOffset": 193392,
      "componentType": 5126,
      "count": 926,
      "max": [
        0.68559497594833374,
        0.34559100866317749,
        0.33434399962425232
      ],
      "min": [
        -0.69447898864746094,
        -0.007655709981918335,
        -0.3317829966545105
      ],
      "type": "VEC3"
    },
    {
      "bufferView": 2,
      "byteOffset": 204504,
      "componentType": 5126,
      "count": 926,
      "max": [
        0.9983450174331665,
        0.99987536668777466,
        0.99999964237213135
      ],
      "min": [
        -0.9931633472442627,
        -0.73477482795715332,
        -0.99999922513961792
      ],
      "type": "VEC3"
    },
    {
      "bufferView": 3,
      "byteOffset": 93568,
      "componentType": 5126,
      "count": 926,
      "max": [
        0.89265698194503784,
        0.87180399894714355,
        0.99943602085113525,
        1
      ],
      "min": [
        -0.88033401966094971,
        -0.99999898672103882,
        -0.9999840259552002,
        -1
      ],
      "type": "VEC4"
    },
    {
      "bufferView": 1,
      "byteOffset": 46784,
      "componentType": 5126,
      "count": 926,
      "max": [
        1,
        1
      ],
      "min": [
        0,
        0
      ],
      "type": "VEC2"
    },
    {
      "bufferView": 0,
      "byteOffset": 77808,
      "componentType": 5125,
      "count": 1425,
      "max": [
        925
      ],
      "min": [
        0
      ],
      "type": "SCALAR"
    }
  ],
  "asset": {
    "extras": {
      "author": "challe3d (https://sketchfab.com/challe3d)",
      "license": "CC-BY-4.0 (http://creativecommons.org/licenses/by/4.0/)",
      "source": "https://sketchfab.com/models/bd3d3d8afa3c4a5097d3d22911d6a921",
      "title": "Large militery tent"
    },
    "generator": "Sketchfab-3.19.6",
    "version": "2.0"
  },
  "bufferViews": [
    {
      "buffer": 0,
      "byteLength": 83508,
      "byteOffset": 0,
      "name": "floatBufferViews",
      "target": 34963
    },
    {
      "buffer": 0,
      "byteLength": 54192,
      "byteOffset": 83508,
      "byteStride": 8,
      "name": "floatBufferViews",
      "target": 34962
    },
    {
      "buffer": 0,
      "byteLength": 215616,
      "byteOffset": 137700,
      "byteStride": 12,
      "name": "floatBufferViews",
      "target": 34962
    },
    {
      "buffer": 0,
      "byteLength": 108384,
      "byteOffset": 353316,
      "byteStride": 16,
      "name": "floatBufferViews",
      "target": 34962
    }
  ],
  "buffers": [
    {
      "byteLength": 461700,
      "uri": "scene.bin"
    }
  ],
  "images": [
    {
      "uri": "textures/Woodsupport_normal.jpeg"
    },
    {
      "uri": "textures/Woodsupport_metallicRoughness.png"
    },
    {
      "uri": "textures/Woodsupport_baseColor.jpeg"
    },
    {
      "uri": "textures/Tentroof_metallicRoughness.png"
    },
    {
      "uri": "textures/Tentroof_normal.jpeg"
    },
    {
      "uri": "textures/Tentroof_baseColor.jpeg"
    },
    {
      "uri": "textures/Ropes_metallicRoughness.png"
    },
    {
      "uri": "textures/Ropes_normal.jpeg"
    },
    {
      "uri": "textures/Ropes_baseColor.jpeg"
    },
    {
      "uri": "textures/Pillar_metallicRoughness.png"
    },
    {
      "uri": "textures/Pillar_normal.jpeg"
    },
    {
      "uri": "textures/Pillar_baseColor.jpeg"
    },
    {
      "uri": "textures/Base_normal.png"
    },
    {
      "uri": "textures/Base_metallicRoughness.png"
    },
    {
      "uri": "textures/Base_baseColor.png"
    }
  ],
  "materials": [
    {
      "doubleSided": true,
      "emissiveFactor": [
        0,
        0,
        0
      ],
      "name": "Tentroof",
      "normalTexture": {
        "index": 4,
        "scale": 1,
        "texCoord": 0
      },
      "occlusionTexture": {
        "index": 3,
        "strength": 1,
        "texCoord": 0
      },
      "pbrMetallicRoughness": {
        "baseColorFactor": [
          1,
          1,
          1,
          1
        ],
        "baseColorTexture": {
          "index": 5,
          "texCoord": 0
        },
        "metallicFactor": 1,
        "metallicRoughnessTexture": {
          "index": 3,
          "texCoord": 0
        },
        "roughnessFactor": 1
      }
    },
    {
      "doubleSided": true,
      "emissiveFactor": [
        0,
        0,
        0
      ],
      "name": "Pillar",
      "normalTexture": {
        "index": 10,
        "scale": 1,
        "texCoord": 0
      },
      "occlusionTexture": {
        "index": 9,
        "strength": 1,
        "texCoord": 0
      },
      "pbrMetallicRoughness": {
        "baseColorFactor": [
          1,
          1,
          1,
          1
        ],
        "baseColorTexture": {
          "index": 11,
          "texCoord": 0
        },
        "metallicFactor": 1,
        "metallicRoughnessTexture": {
          "index": 9,
          "texCoord": 0
        },
        "roughnessFactor": 1
      }
    },
    {
      "doubleSided": true,
      "emissiveFactor": [
        0,
        0,
        0
      ],
      "name": "Woodsupport",
      "normalTexture": {
        "index": 0,
        "scale": 1,
        "texCoord": 0
      },
      "pbrMetallicRoughness": {
        "baseColorFactor": [
          1,
          1,
          1,
          1
        ],
        "baseColorTexture": {
          "index": 2,
          "texCoord": 0
        },
        "metallicFactor": 1,
        "metallicRoughnessTexture": {
          "index": 1,
          "texCoord": 0
        },
        "roughnessFactor": 1
      }
    },
    {
      "doubleSided": true,
      "emissiveFactor": [
        0,
        0,
        0
      ],
      "name": "Base",
      "normalTexture": {
        "index": 12,
        "scale": 1,
        "texCoord": 0
      },
      "pbrMetallicRoughness": {
        "baseColorFactor": [
          1,
          1,
          1,
          1
        ],
        "baseColorTexture": {
          "index": 14,
          "texCoord": 0
        },
        "metallicFactor": 1,
        "metallicRoughnessTexture": {
          "index": 13,
          "texCoord": 0
        },
        "roughnessFactor": 1
      }
    },
    {
      "doubleSided": true,
      "emissiveFactor": [
        0,
        0,
        0
      ],
      "name": "Ropes",
      "normalTexture": {
        "index": 7,
        "scale": 1,
        "texCoord": 0
      },
      "occlusionTexture": {
        "index": 6,
        "strength": 1,
        "texCoord": 0
      },
      "pbrMetallicRoughness": {
        "baseColorFactor": [
          1,
          1,
          1,
          1
        ],
        "baseColorTexture": {
          "index": 8,
          "texCoord": 0
        },
        "metallicFactor": 1,
        "metallicRoughnessTexture": {
          "index": 6,
          "texCoord": 0
        },
        "roughnessFactor": 1
      }
    }
  ],
  "meshes": [
    {
      "name": "defaultMaterial",
      "primitives": [
        {
          "attributes": {
            "COLOR_0": 3,
            "NORMAL": 1,
            "POSITION": 0,
            "TANGENT": 2,
            "TEXCOORD_0": 4
          },
          "indices": 5,
          "material": 4,
          "mode": 4
        }
      ]
    },
    {
      "name": "defaultMaterial",
      "primitives": [
        {
          "attributes": {
            "NORMAL": 7,
            "POSITION": 6,
            "TANGENT": 8,
            "TEXCOORD_0": 9
          },
          "indices": 10,
          "material": 3,
          "mode": 4
        }
      ]
    },
    {
      "name": "defaultMaterial",
      "primitives": [
        {
          "attributes": {
            "NORMAL": 12,
            "POSITION": 11,
            "TANGENT": 13,
            "TEXCOORD_0": 14
          },
          "indices": 15,
          "material": 2,
          "mode": 4
        }
      ]
    },
    {
      "name": "defaultMaterial",
      "primitives": [
        {
          "attributes": {
            "NORMAL": 17,
            "POSITION": 16,
            "TANGENT": 18,
            "TEXCOORD_0": 19
          },
          "indices": 20,
          "material": 1,
          "mode": 4
        }
      ]
    },
    {
      "name": "defaultMaterial",
      "primitives": [
        {
          "attributes": {
            "NORMAL": 22,
            "POSITION": 21,
            "TANGENT": 23,
            "TEXCOORD_0": 24
          },
          "indices": 25,
          "material": 0,
          "mode": 4
        }
      ]
    }
  ],
  "nodes": [
    {
      "children": [
        1
      ],
      "name": "RootNode (gltf orientation matrix)",
      "rotation": [
        -0.70710678118654746,
        -0,
        -0,
        0.70710678118654757
      ]
    },
    {
      "children": [
        2
      ],
      "name": "RootNode (model correction matrix)"
    },
    {
      "children": [
        3,
        5,
        7,
        9,
        11
      ],
      "matrix": [
        1,
        0,
        0,
        0,
        0,
        -4.3711390063094768e-08,
        0.999999999999999,
        0,
        0,
        -0.999999999999999,
        -4.3711390063094768e-08,
        0,
        0,
        0,
        0,
        1
      ],
      "name": "Collada visual scene group"
    },
    {
      "children": [
        4
      ],
      "name": "Cylinder.003"
    },
    {
      "mesh": 0,
      "name": "defaultMaterial"
    },
    {
      "children": [
        6
      ],
      "name": "Cube.015"
    },
    {
      "mesh": 1,
      "name": "defaultMaterial"
    },
    {
      "children": [
        8
      ],
      "name": "Cube.002"
    },
    {
      "mesh": 2,
      "name": "defaultMaterial"
    },
    {
      "children": [
        10
      ],
      "name": "RoadKillOut.000"
    },
    {
      "mesh": 3,
      "name": "defaultMaterial"
    },
    {
      "children": [
        12
      ],
      "name": "Cube.015_Cube.001"
    },
    {
      "mesh": 4,
      "name": "defaultMaterial"
    }
  ],
  "samplers": [
    {
      "magFilter": 9729,
      "minFilter": 9987,
      "wrapS": 10497,
      "wrapT": 10497
    }
  ],
  "scene": 0,
  "scenes": [
    {
      "name": "OSG_Scene",
      "nodes": [
        0
      ]
    }
  ],
  "textures": [
    {
      "sampler": 0,
      "source": 0
    },
    {
      "sampler": 0,
      "source": 1
    },
    {
      "sampler": 0,
      "source": 2
    },
    {
      "sampler": 0,
      "source": 3
    },
    {
      "sampler": 0,
      "source": 4
    },
    {
      "sampler": 0,
      "source": 5
    },
    {
      "sampler": 0,
      "source": 6
    },
    {
      "sampler": 0,
      "source": 7
    },
    {
      "sampler": 0,
      "source": 8
    },
    {
      "sampler": 0,
      "source": 9
    },
    {
      "sampler": 0,
      "source": 10
    },
    {
      "sampler": 0,
      "source": 11
    },
    {
      "sampler": 0,
      "source": 12
    },
    {
      "sampler": 0,
      "source": 13
    },
    {
      "sampler": 0,
      "source": 14
    }
  ]
}

